  0
SECTION
  2
HEADER
  9
$ACADVER
  1
AC1018
  9
$ACADMAINTVER
 70
     0
  9
$DWGCODEPAGE
  3
ANSI_1252
  9
$INSBASE
 10
0.0
 20
0.0
 30
0.0
  9
$EXTMIN
 10
1.000000000000000E+20
 20
1.000000000000000E+20
 30
1.000000000000000E+20
  9
$EXTMAX
 10
-1.000000000000000E+20
 20
-1.000000000000000E+20
 30
-1.000000000000000E+20
  9
$LIMMIN
 10
0.0
 20
0.0
  9
$LIMMAX
 10
12.0
 20
9.0
  9
$ORTHOMODE
 70
     0
  9
$REGENMODE
 70
     1
  9
$FILLMODE
 70
     1
  9
$QTEXTMODE
 70
     0
  9
$MIRRTEXT
 70
     1
  9
$LTSCALE
 40
1.0
  9
$ATTMODE
 70
     1
  9
$TEXTSIZE
 40
0.2
  9
$TRACEWID
 40
0.05
  9
$TEXTSTYLE
  7
Standard
  9
$CLAYER
  8
0
  9
$CELTYPE
  6
ByLayer
  9
$CECOLOR
 62
   256
  9
$CELTSCALE
 40
1.0
  9
$DISPSILH
 70
     0
  9
$DIMSCALE
 40
1.0
  9
$DIMASZ
 40
0.18
  9
$DIMEXO
 40
0.0625
  9
$DIMDLI
 40
0.38
  9
$DIMRND
 40
0.0
  9
$DIMDLE
 40
0.0
  9
$DIMEXE
 40
0.18
  9
$DIMTP
 40
0.0
  9
$DIMTM
 40
0.0
  9
$DIMTXT
 40
0.18
  9
$DIMCEN
 40
0.09
  9
$DIMTSZ
 40
0.0
  9
$DIMTOL
 70
     0
  9
$DIMLIM
 70
     0
  9
$DIMTIH
 70
     1
  9
$DIMTOH
 70
     1
  9
$DIMSE1
 70
     0
  9
$DIMSE2
 70
     0
  9
$DIMTAD
 70
     0
  9
$DIMZIN
 70
     0
  9
$DIMBLK
  1

  9
$DIMASO
 70
     1
  9
$DIMSHO
 70
     1
  9
$DIMPOST
  1

  9
$DIMAPOST
  1

  9
$DIMALT
 70
     0
  9
$DIMALTD
 70
     2
  9
$DIMALTF
 40
25.4
  9
$DIMLFAC
 40
1.0
  9
$DIMTOFL
 70
     0
  9
$DIMTVP
 40
0.0
  9
$DIMTIX
 70
     0
  9
$DIMSOXD
 70
     0
  9
$DIMSAH
 70
     0
  9
$DIMBLK1
  1

  9
$DIMBLK2
  1

  9
$DIMSTYLE
  2
Standard
  9
$DIMCLRD
 70
     0
  9
$DIMCLRE
 70
     0
  9
$DIMCLRT
 70
     0
  9
$DIMTFAC
 40
1.0
  9
$DIMGAP
 40
0.09
  9
$DIMJUST
 70
     0
  9
$DIMSD1
 70
     0
  9
$DIMSD2
 70
     0
  9
$DIMTOLJ
 70
     1
  9
$DIMTZIN
 70
     0
  9
$DIMALTZ
 70
     0
  9
$DIMALTTZ
 70
     0
  9
$DIMUPT
 70
     0
  9
$DIMDEC
 70
     4
  9
$DIMTDEC
 70
     4
  9
$DIMALTU
 70
     2
  9
$DIMALTTD
 70
     2
  9
$DIMTXSTY
  7
Standard
  9
$DIMAUNIT
 70
     0
  9
$DIMADEC
 70
     0
  9
$DIMALTRND
 40
0.0
  9
$DIMAZIN
 70
     0
  9
$DIMDSEP
 70
    46
  9
$DIMATFIT
 70
     3
  9
$DIMFRAC
 70
     0
  9
$DIMLDRBLK
  1

  9
$DIMLUNIT
 70
     2
  9
$DIMLWD
 70
    -2
  9
$DIMLWE
 70
    -2
  9
$DIMTMOVE
 70
     0
  9
$LUNITS
 70
     2
  9
$LUPREC
 70
     4
  9
$SKETCHINC
 40
0.1
  9
$FILLETRAD
 40
0.5
  9
$AUNITS
 70
     0
  9
$AUPREC
 70
     0
  9
$MENU
  1
.
  9
$ELEVATION
 40
0.0
  9
$PELEVATION
 40
0.0
  9
$THICKNESS
 40
0.0
  9
$LIMCHECK
 70
     0
  9
$CHAMFERA
 40
0.5
  9
$CHAMFERB
 40
0.5
  9
$CHAMFERC
 40
1.0
  9
$CHAMFERD
 40
0.0
  9
$SKPOLY
 70
     0
  9
$TDCREATE
 40
2458235.474510069
  9
$TDUCREATE
 40
2458235.766176736
  9
$TDUPDATE
 40
2458235.474510081
  9
$TDUUPDATE
 40
2458235.766176748
  9
$TDINDWG
 40
0.0000000116
  9
$TDUSRTIMER
 40
0.0000000116
  9
$USRTIMER
 70
     1
  9
$ANGBASE
 50
0.0
  9
$ANGDIR
 70
     0
  9
$PDMODE
 70
     0
  9
$PDSIZE
 40
0.0
  9
$PLINEWID
 40
0.0
  9
$SPLFRAME
 70
     0
  9
$SPLINETYPE
 70
     6
  9
$SPLINESEGS
 70
     8
  9
$HANDSEED
  5
54
  9
$SURFTAB1
 70
     6
  9
$SURFTAB2
 70
     6
  9
$SURFTYPE
 70
     6
  9
$SURFU
 70
     6
  9
$SURFV
 70
     6
  9
$UCSBASE
  2

  9
$UCSNAME
  2

  9
$UCSORG
 10
0.0
 20
0.0
 30
0.0
  9
$UCSXDIR
 10
1.0
 20
0.0
 30
0.0
  9
$UCSYDIR
 10
0.0
 20
1.0
 30
0.0
  9
$UCSORTHOREF
  2

  9
$UCSORTHOVIEW
 70
     0
  9
$UCSORGTOP
 10
0.0
 20
0.0
 30
0.0
  9
$UCSORGBOTTOM
 10
0.0
 20
0.0
 30
0.0
  9
$UCSORGLEFT
 10
0.0
 20
0.0
 30
0.0
  9
$UCSORGRIGHT
 10
0.0
 20
0.0
 30
0.0
  9
$UCSORGFRONT
 10
0.0
 20
0.0
 30
0.0
  9
$UCSORGBACK
 10
0.0
 20
0.0
 30
0.0
  9
$PUCSBASE
  2

  9
$PUCSNAME
  2

  9
$PUCSORG
 10
0.0
 20
0.0
 30
0.0
  9
$PUCSXDIR
 10
1.0
 20
0.0
 30
0.0
  9
$PUCSYDIR
 10
0.0
 20
1.0
 30
0.0
  9
$PUCSORTHOREF
  2

  9
$PUCSORTHOVIEW
 70
     0
  9
$PUCSORGTOP
 10
0.0
 20
0.0
 30
0.0
  9
$PUCSORGBOTTOM
 10
0.0
 20
0.0
 30
0.0
  9
$PUCSORGLEFT
 10
0.0
 20
0.0
 30
0.0
  9
$PUCSORGRIGHT
 10
0.0
 20
0.0
 30
0.0
  9
$PUCSORGFRONT
 10
0.0
 20
0.0
 30
0.0
  9
$PUCSORGBACK
 10
0.0
 20
0.0
 30
0.0
  9
$USERI1
 70
     0
  9
$USERI2
 70
     0
  9
$USERI3
 70
     0
  9
$USERI4
 70
     0
  9
$USERI5
 70
     0
  9
$USERR1
 40
0.0
  9
$USERR2
 40
0.0
  9
$USERR3
 40
0.0
  9
$USERR4
 40
0.0
  9
$USERR5
 40
0.0
  9
$WORLDVIEW
 70
     1
  9
$SHADEDGE
 70
     3
  9
$SHADEDIF
 70
    70
  9
$TILEMODE
 70
     1
  9
$MAXACTVP
 70
    64
  9
$PINSBASE
 10
0.0
 20
0.0
 30
0.0
  9
$PLIMCHECK
 70
     0
  9
$PEXTMIN
 10
1.000000000000000E+20
 20
1.000000000000000E+20
 30
1.000000000000000E+20
  9
$PEXTMAX
 10
-1.000000000000000E+20
 20
-1.000000000000000E+20
 30
-1.000000000000000E+20
  9
$PLIMMIN
 10
0.0
 20
0.0
  9
$PLIMMAX
 10
12.0
 20
9.0
  9
$UNITMODE
 70
     0
  9
$VISRETAIN
 70
     1
  9
$PLINEGEN
 70
     0
  9
$PSLTSCALE
 70
     1
  9
$TREEDEPTH
 70
  3020
  9
$CMLSTYLE
  2
Standard
  9
$CMLJUST
 70
     0
  9
$CMLSCALE
 40
1.0
  9
$PROXYGRAPHICS
 70
     1
  9
$MEASUREMENT
 70
     0
  9
$CELWEIGHT
370
    -1
  9
$ENDCAPS
280
     0
  9
$JOINSTYLE
280
     0
  9
$LWDISPLAY
290
     1
  9
$INSUNITS
 70
     1
  9
$HYPERLINKBASE
  1

  9
$STYLESHEET
  1

  9
$XEDIT
290
     1
  9
$CEPSNTYPE
380
     0
  9
$PSTYLEMODE
290
     1
  9
$FINGERPRINTGUID
  2
{A4E73A68-A6C3-411E-89F7-A2D4B5C848D8}
  9
$VERSIONGUID
  2
{FAEB1C32-E019-11D5-929B-00C0DF256EC4}
  9
$EXTNAMES
290
     1
  9
$PSVPSCALE
 40
0.0
  9
$OLESTARTUP
290
     0
  9
$SORTENTS
280
   127
  9
$INDEXCTL
280
     0
  9
$HIDETEXT
280
     1
  9
$XCLIPFRAME
290
     0
  9
$HALOGAP
280
     0
  9
$OBSCOLOR
 70
   257
  9
$OBSLTYPE
280
     0
  9
$INTERSECTIONDISPLAY
280
     0
  9
$INTERSECTIONCOLOR
 70
   257
  9
$DIMASSOC
280
     2
  9
$PROJECTNAME
  1

  0
ENDSEC
  0
SECTION
  2
CLASSES
  0
CLASS
  1
ACDBDICTIONARYWDFLT
  2
AcDbDictionaryWithDefault
  3
ObjectDBX Classes
 90
        0
 91
        3
280
     0
281
     0
  0
CLASS
  1
VISUALSTYLE
  2
AcDbVisualStyle
  3
ObjectDBX Classes
 90
     4095
 91
        3
280
     0
281
     0
  0
ENDSEC
  0
SECTION
  2
TABLES
  0
TABLE
  2
VPORT
  5
8
330
0
100
AcDbSymbolTable
 70
     1
  0
VPORT
  5
29
330
8
100
AcDbSymbolTableRecord
100
AcDbViewportTableRecord
  2
*Active
 70
     0
 10
0.0
 20
0.0
 11
1.0
 21
1.0
 12
0.0
 22
0.0
 13
0.0
 23
0.0
 14
0.5
 24
0.5
 15
0.5
 25
0.5
 16
0.0
 26
0.0
 36
1.0
 17
217.77685546875
 27
189.63037109375
 37
0.0
 40
379.2607421875
 41
1.148428145832636
 42
50.0
 43
0.0
 44
0.0
 50
0.0
 51
0.0
 71
     0
 72
   100
 73
     1
 74
     3
 75
     0
 76
     0
 77
     0
 78
     0
281
     0
 65
     1
110
0.0
120
0.0
130
0.0
111
1.0
121
0.0
131
0.0
112
0.0
122
1.0
132
0.0
 79
     0
146
0.0
  0
ENDTAB
  0
TABLE
  2
LTYPE
  5
5
330
0
100
AcDbSymbolTable
 70
     1
  0
LTYPE
  5
14
330
5
100
AcDbSymbolTableRecord
100
AcDbLinetypeTableRecord
  2
ByBlock
 70
     0
  3

 72
    65
 73
     0
 40
0.0
  0
LTYPE
  5
15
330
5
100
AcDbSymbolTableRecord
100
AcDbLinetypeTableRecord
  2
ByLayer
 70
     0
  3

 72
    65
 73
     0
 40
0.0
  0
LTYPE
  5
16
330
5
100
AcDbSymbolTableRecord
100
AcDbLinetypeTableRecord
  2
Continuous
 70
     0
  3
Solid line
 72
    65
 73
     0
 40
0.0
  0
ENDTAB
  0
TABLE
  2
LAYER
  5
2
330
0
100
AcDbSymbolTable
 70
     2
  0
LAYER
  5
10
330
2
100
AcDbSymbolTableRecord
100
AcDbLayerTableRecord
  2
0
 70
     0
 62
     7
  6
Continuous
370
    -3
390
F
  0
LAYER
  5
3B
330
2
100
AcDbSymbolTableRecord
100
AcDbLayerTableRecord
  2
Layer 1
 70
     0
 62
     7
  6
Continuous
370
    -3
390
F
  0
ENDTAB
  0
TABLE
  2
STYLE
  5
3
330
0
100
AcDbSymbolTable
 70
     1
  0
STYLE
  5
11
330
3
100
AcDbSymbolTableRecord
100
AcDbTextStyleTableRecord
  2
Standard
 70
     0
 40
0.0
 41
1.0
 50
0.0
 71
     0
 42
0.2
  3
txt
  4

  0
ENDTAB
  0
TABLE
  2
VIEW
  5
6
330
0
100
AcDbSymbolTable
 70
     0
  0
ENDTAB
  0
TABLE
  2
UCS
  5
7
330
0
100
AcDbSymbolTable
 70
     0
  0
ENDTAB
  0
TABLE
  2
APPID
  5
9
330
0
100
AcDbSymbolTable
 70
     1
  0
APPID
  5
12
330
9
100
AcDbSymbolTableRecord
100
AcDbRegAppTableRecord
  2
ACAD
 70
     0
  0
ENDTAB
  0
TABLE
  2
DIMSTYLE
  5
A
330
0
100
AcDbSymbolTable
 70
     1
100
AcDbDimStyleTable
  0
DIMSTYLE
105
27
330
A
100
AcDbSymbolTableRecord
100
AcDbDimStyleTableRecord
  2
Standard
 70
     0
340
11
  0
ENDTAB
  0
TABLE
  2
BLOCK_RECORD
  5
1
330
0
100
AcDbSymbolTable
 70
     2
  0
BLOCK_RECORD
  5
1F
330
1
100
AcDbSymbolTableRecord
100
AcDbBlockTableRecord
  2
*Model_Space
340
22
  0
BLOCK_RECORD
  5
1B
330
1
100
AcDbSymbolTableRecord
100
AcDbBlockTableRecord
  2
*Paper_Space
340
1E
  0
BLOCK_RECORD
  5
23
330
1
100
AcDbSymbolTableRecord
100
AcDbBlockTableRecord
  2
*Paper_Space0
340
26
  0
BLOCK_RECORD
  5
3C
330
1
100
AcDbSymbolTableRecord
100
AcDbBlockTableRecord
  2
block 2
340
0
102
{BLKREFS
331
3D
102
}
  0
ENDTAB
  0
ENDSEC
  0
SECTION
  2
BLOCKS
  0
BLOCK
  5
20
330
1F
100
AcDbEntity
  8
0
100
AcDbBlockBegin
  2
*Model_Space
 70
     0
 71
     0
 10
0.0
 20
0.0
 30
0.0
  3
*Model_Space
  1

  0
ENDBLK
  5
21
330
1F
100
AcDbEntity
  8
0
100
AcDbBlockEnd
  0
BLOCK
  5
1C
330
1B
100
AcDbEntity
 67
     1
  8
0
100
AcDbBlockBegin
  2
*Paper_Space
 70
     0
 71
     0
 10
0.0
 20
0.0
 30
0.0
  3
*Paper_Space
  1

  0
ENDBLK
  5
1D
330
1B
100
AcDbEntity
 67
     1
  8
0
100
AcDbBlockEnd
  0
BLOCK
  5
24
330
23
100
AcDbEntity
  8
0
100
AcDbBlockBegin
  2
*Paper_Space0
 70
     0
 71
     0
 10
0.0
 20
0.0
 30
0.0
  3
*Paper_Space0
  1

  0
ENDBLK
  5
25
330
23
100
AcDbEntity
  8
0
100
AcDbBlockEnd
  0
BLOCK
  5
3E
330
3C
100
AcDbEntity
  8
0
100
AcDbBlockBegin
  2
block 2
 70
     0
 71
     0
 10
0.0
 20
0.0
 30
0.0
  3
block 2
  1

  0
SPLINE
  5
40
330
3C
100
AcDbEntity
  8
Layer 1
 62
   205
420
  8412583
370
    20
100
AcDbSpline
210
0.0
220
0.0
230
1.0
 70
    11
 71
     3
 72
   221
 73
   217
 74
     0
 42
0.0000000001
 43
0.0000000001
 40
0.0
 40
0.0
 40
0.0
 40
0.0
 40
1.0
 40
1.0
 40
1.0
 40
2.0
 40
2.0
 40
2.0
 40
3.0
 40
3.0
 40
3.0
 40
4.0
 40
4.0
 40
4.0
 40
5.0
 40
5.0
 40
5.0
 40
6.0
 40
6.0
 40
6.0
 40
7.0
 40
7.0
 40
7.0
 40
8.0
 40
8.0
 40
8.0
 40
9.0
 40
9.0
 40
9.0
 40
10.0
 40
10.0
 40
10.0
 40
11.0
 40
11.0
 40
11.0
 40
12.0
 40
12.0
 40
12.0
 40
13.0
 40
13.0
 40
13.0
 40
14.0
 40
14.0
 40
14.0
 40
15.0
 40
15.0
 40
15.0
 40
16.0
 40
16.0
 40
16.0
 40
17.0
 40
17.0
 40
17.0
 40
18.0
 40
18.0
 40
18.0
 40
19.0
 40
19.0
 40
19.0
 40
20.0
 40
20.0
 40
20.0
 40
21.0
 40
21.0
 40
21.0
 40
22.0
 40
22.0
 40
22.0
 40
23.0
 40
23.0
 40
23.0
 40
24.0
 40
24.0
 40
24.0
 40
25.0
 40
25.0
 40
25.0
 40
26.0
 40
26.0
 40
26.0
 40
27.0
 40
27.0
 40
27.0
 40
28.0
 40
28.0
 40
28.0
 40
29.0
 40
29.0
 40
29.0
 40
30.0
 40
30.0
 40
30.0
 40
31.0
 40
31.0
 40
31.0
 40
32.0
 40
32.0
 40
32.0
 40
33.0
 40
33.0
 40
33.0
 40
34.0
 40
34.0
 40
34.0
 40
35.0
 40
35.0
 40
35.0
 40
36.0
 40
36.0
 40
36.0
 40
37.0
 40
37.0
 40
37.0
 40
38.0
 40
38.0
 40
38.0
 40
39.0
 40
39.0
 40
39.0
 40
40.0
 40
40.0
 40
40.0
 40
41.0
 40
41.0
 40
41.0
 40
42.0
 40
42.0
 40
42.0
 40
43.0
 40
43.0
 40
43.0
 40
44.0
 40
44.0
 40
44.0
 40
45.0
 40
45.0
 40
45.0
 40
46.0
 40
46.0
 40
46.0
 40
47.0
 40
47.0
 40
47.0
 40
48.0
 40
48.0
 40
48.0
 40
49.0
 40
49.0
 40
49.0
 40
50.0
 40
50.0
 40
50.0
 40
51.0
 40
51.0
 40
51.0
 40
52.0
 40
52.0
 40
52.0
 40
53.0
 40
53.0
 40
53.0
 40
54.0
 40
54.0
 40
54.0
 40
55.0
 40
55.0
 40
55.0
 40
56.0
 40
56.0
 40
56.0
 40
57.0
 40
57.0
 40
57.0
 40
58.0
 40
58.0
 40
58.0
 40
59.0
 40
59.0
 40
59.0
 40
60.0
 40
60.0
 40
60.0
 40
61.0
 40
61.0
 40
61.0
 40
62.0
 40
62.0
 40
62.0
 40
63.0
 40
63.0
 40
63.0
 40
64.0
 40
64.0
 40
64.0
 40
65.0
 40
65.0
 40
65.0
 40
66.0
 40
66.0
 40
66.0
 40
67.0
 40
67.0
 40
67.0
 40
68.0
 40
68.0
 40
68.0
 40
69.0
 40
69.0
 40
69.0
 40
70.0
 40
70.0
 40
70.0
 40
71.0
 40
71.0
 40
71.0
 40
72.0
 40
72.0
 40
72.0
 40
72.0
 10
434.978515625
 20
131.2587890625
 30
0.0
 10
434.4150390625
 20
133.3603515625
 30
0.0
 10
433.0498046875
 20
135.24609375
 30
0.0
 10
431.0166015625
 20
136.4208984375
 30
0.0
 10
431.0166015625
 20
136.4208984375
 30
0.0
 10
427.3369140625
 20
138.5458984375
 30
0.0
 10
427.3369140625
 20
138.5458984375
 30
0.0
 10
427.3369140625
 20
138.5458984375
 30
0.0
 10
423.65625
 20
140.6708984375
 30
0.0
 10
423.65625
 20
140.6708984375
 30
0.0
 10
406.63671875
 20
150.49609375
 30
0.0
 10
393.181640625
 20
158.73828125
 30
0.0
 10
383.0068359375
 20
166.2451171875
 30
0.0
 10
380.9638671875
 20
167.7529296875
 30
0.0
 10
378.0693359375
 20
167.1376953125
 30
0.0
 10
376.798828125
 20
164.9384765625
 30
0.0
 10
376.798828125
 20
164.9384765625
 30
0.0
 10
372.544921875
 20
157.572265625
 30
0.0
 10
372.544921875
 20
157.572265625
 30
0.0
 10
371.4609375
 20
155.6943359375
 30
0.0
 10
371.9560546875
 20
153.3017578125
 30
0.0
 10
373.7041015625
 20
152.0185546875
 30
0.0
 10
383.7783203125
 20
144.6220703125
 30
0.0
 10
396.0341796875
 20
137.0703125
 30
0.0
 10
410.263671875
 20
128.775390625
 30
0.0
 10
411.6123046875
 20
127.9892578125
 30
0.0
 10
412.517578125
 20
126.732421875
 30
0.0
 10
412.8916015625
 20
125.333984375
 30
0.0
 10
413.265625
 20
123.935546875
 30
0.0
 10
413.1064453125
 20
122.39453125
 30
0.0
 10
412.328125
 20
121.04296875
 30
0.0
 10
412.328125
 20
121.04296875
 30
0.0
 10
384.703125
 20
73.1484375
 30
0.0
 10
384.703125
 20
73.1484375
 30
0.0
 10
384.703125
 20
73.1484375
 30
0.0
 10
357.0791015625
 20
25.25390625
 30
0.0
 10
357.0791015625
 20
25.25390625
 30
0.0
 10
356.30859375
 20
23.9189453125
 30
0.0
 10
355.0751953125
 20
23.0166015625
 30
0.0
 10
353.6962890625
 20
22.634765625
 30
0.0
 10
352.3154296875
 20
22.2529296875
 30
0.0
 10
350.7919921875
 20
22.390625
 30
0.0
 10
349.44140625
 20
23.134765625
 30
0.0
 10
321.98046875
 20
38.267578125
 30
0.0
 10
297.3671875
 20
45.7470703125
 30
0.0
 10
274.3955078125
 20
50.166015625
 30
0.0
 10
251.42578125
 20
54.5859375
 30
0.0
 10
230.0986328125
 20
55.943359375
 30
0.0
 10
209.2119140625
 20
58.83203125
 30
0.0
 10
207.8046875
 20
59.02734375
 30
0.0
 10
206.57373046875
 20
59.72265625
 30
0.0
 10
205.69580078125
 20
60.7236328125
 30
0.0
 10
204.81787109375
 20
61.7255859375
 30
0.0
 10
204.291015625
 20
63.033203125
 30
0.0
 10
204.291015625
 20
64.4541015625
 30
0.0
 10
204.291015625
 20
64.4541015625
 30
0.0
 10
204.291015625
 20
86.1708984375
 30
0.0
 10
204.291015625
 20
86.1708984375
 30
0.0
 10
204.291015625
 20
86.1708984375
 30
0.0
 10
204.291015625
 20
107.8876953125
 30
0.0
 10
204.291015625
 20
107.8876953125
 30
0.0
 10
204.291015625
 20
109.44921875
 30
0.0
 10
203.65771484375
 20
110.8642578125
 30
0.0
 10
202.6337890625
 20
111.888671875
 30
0.0
 10
201.60986328125
 20
112.912109375
 30
0.0
 10
200.19580078125
 20
113.5458984375
 30
0.0
 10
198.6328125
 20
113.5458984375
 30
0.0
 10
198.6328125
 20
113.5458984375
 30
0.0
 10
110.7919921875
 20
113.5458984375
 30
0.0
 10
110.7919921875
 20
113.5458984375
 30
0.0
 10
110.7919921875
 20
113.5458984375
 30
0.0
 10
22.94970703125
 20
113.5458984375
 30
0.0
 10
22.94970703125
 20
113.5458984375
 30
0.0
 10
21.3876953125
 20
113.5458984375
 30
0.0
 10
19.97265625
 20
114.1787109375
 30
0.0
 10
18.94873046875
 20
115.2021484375
 30
0.0
 10
17.9248046875
 20
116.2275390625
 30
0.0
 10
17.291015625
 20
117.6416015625
 30
0.0
 10
17.291015625
 20
119.2041015625
 30
0.0
 10
17.291015625
 20
119.2041015625
 30
0.0
 10
17.291015625
 20
222.193359375
 30
0.0
 10
17.291015625
 20
222.193359375
 30
0.0
 10
17.291015625
 20
222.193359375
 30
0.0
 10
17.291015625
 20
325.1826171875
 30
0.0
 10
17.291015625
 20
325.1826171875
 30
0.0
 10
17.291015625
 20
326.4697265625
 30
0.0
 10
17.72412109375
 20
327.67626953125
 30
0.0
 10
18.4677734375
 20
328.6455078125
 30
0.0
 10
19.2119140625
 20
329.61328125
 30
0.0
 10
20.26708984375
 20
330.34375
 30
0.0
 10
21.509765625
 20
330.67431640625
 30
0.0
 10
45.81103515625
 20
337.142578125
 30
0.0
 10
69.7216796875
 20
342.87353515625
 30
0.0
 10
93.04296875
 20
347.61865234375
 30
0.0
 10
115.0380859375
 20
352.09228515625
 30
0.0
 10
136.5087890625
 20
355.689453125
 30
0.0
 10
157.2861328125
 20
358.197265625
 30
0.0
 10
159.4267578125
 20
358.45556640625
 30
0.0
 10
161.0361328125
 20
360.2626953125
 30
0.0
 10
161.0361328125
 20
362.41845703125
 30
0.0
 10
161.0361328125
 20
362.41845703125
 30
0.0
 10
161.0361328125
 20
364.79541015625
 30
0.0
 10
161.0361328125
 20
364.79541015625
 30
0.0
 10
161.0361328125
 20
364.79541015625
 30
0.0
 10
161.0361328125
 20
370.95166015625
 30
0.0
 10
161.0361328125
 20
370.95166015625
 30
0.0
 10
161.0361328125
 20
372.2314453125
 30
0.0
 10
160.47607421875
 20
373.3642578125
 30
0.0
 10
159.59912109375
 20
374.140625
 30
0.0
 10
158.720703125
 20
374.91650390625
 30
0.0
 10
157.52587890625
 20
375.33349609375
 30
0.0
 10
156.2548828125
 20
375.181640625
 30
0.0
 10
135.2587890625
 20
372.67333984375
 30
0.0
 10
112.90087890625
 20
369.00048828125
 30
0.0
 10
89.048828125
 20
364.1396484375
 30
0.0
 10
65.19580078125
 20
359.2783203125
 30
0.0
 10
39.84765625
 20
353.2294921875
 30
0.0
 10
12.8720703125
 20
345.9697265625
 30
0.0
 10
12.8720703125
 20
345.9697265625
 30
0.0
 10
9.72509765625
 20
345.12255859375
 30
0.0
 10
9.72509765625
 20
345.12255859375
 30
0.0
 10
9.72509765625
 20
345.12255859375
 30
0.0
 10
6.578125
 20
344.275390625
 30
0.0
 10
6.578125
 20
344.275390625
 30
0.0
 10
4.720703125
 20
343.775390625
 30
0.0
 10
3.14697265625
 20
342.68359375
 30
0.0
 10
2.0380859375
 20
341.236328125
 30
0.0
 10
0.9287109375
 20
339.78955078125
 30
0.0
 10
0.28369140625
 20
337.986328125
 30
0.0
 10
0.28369140625
 20
336.0634765625
 30
0.0
 10
0.28369140625
 20
336.0634765625
 30
0.0
 10
0.28369140625
 20
220.552734375
 30
0.0
 10
0.28369140625
 20
220.552734375
 30
0.0
 10
0.28369140625
 20
220.552734375
 30
0.0
 10
0.28369140625
 20
105.041015625
 30
0.0
 10
0.28369140625
 20
105.041015625
 30
0.0
 10
0.28369140625
 20
102.693359375
 30
0.0
 10
1.23486328125
 20
100.5673828125
 30
0.0
 10
2.77392578125
 20
99.0283203125
 30
0.0
 10
4.31298828125
 20
97.4892578125
 30
0.0
 10
6.43896484375
 20
96.537109375
 30
0.0
 10
8.7880859375
 20
96.537109375
 30
0.0
 10
8.7880859375
 20
96.537109375
 30
0.0
 10
93.7861328125
 20
96.537109375
 30
0.0
 10
93.7861328125
 20
96.537109375
 30
0.0
 10
93.7861328125
 20
96.537109375
 30
0.0
 10
178.78369140625
 20
96.537109375
 30
0.0
 10
178.78369140625
 20
96.537109375
 30
0.0
 10
181.130859375
 20
96.537109375
 30
0.0
 10
183.255859375
 20
95.5859375
 30
0.0
 10
184.7939453125
 20
94.0478515625
 30
0.0
 10
186.33203125
 20
92.509765625
 30
0.0
 10
187.28369140625
 20
90.384765625
 30
0.0
 10
187.28369140625
 20
88.037109375
 30
0.0
 10
187.28369140625
 20
88.037109375
 30
0.0
 10
187.28369140625
 20
70.1357421875
 30
0.0
 10
187.28369140625
 20
70.1357421875
 30
0.0
 10
187.28369140625
 20
70.1357421875
 30
0.0
 10
187.28369140625
 20
52.2333984375
 30
0.0
 10
187.28369140625
 20
52.2333984375
 30
0.0
 10
187.28369140625
 20
50.1318359375
 30
0.0
 10
188.05078125
 20
48.1875
 30
0.0
 10
189.3388671875
 20
46.6904296875
 30
0.0
 10
190.6259765625
 20
45.193359375
 30
0.0
 10
192.43310546875
 20
44.142578125
 30
0.0
 10
194.509765625
 20
43.826171875
 30
0.0
 10
194.509765625
 20
43.826171875
 30
0.0
 10
198.1259765625
 20
43.27734375
 30
0.0
 10
198.1259765625
 20
43.27734375
 30
0.0
 10
198.1259765625
 20
43.27734375
 30
0.0
 10
201.74169921875
 20
42.728515625
 30
0.0
 10
201.74169921875
 20
42.728515625
 30
0.0
 10
206.4130859375
 20
42.0205078125
 30
0.0
 10
211.1181640625
 20
41.40234375
 30
0.0
 10
215.8046875
 20
40.83203125
 30
0.0
 10
220.4921875
 20
40.263671875
 30
0.0
 10
225.1611328125
 20
39.7421875
 30
0.0
 10
229.7578125
 20
39.2294921875
 30
0.0
 10
247.3916015625
 20
37.263671875
 30
0.0
 10
265.326171875
 20
35.263671875
 30
0.0
 10
284.38671875
 20
30.560546875
 30
0.0
 10
303.4482421875
 20
25.8583984375
 30
0.0
 10
323.63671875
 20
18.4521484375
 30
0.0
 10
345.7802734375
 20
5.6748046875
 30
0.0
 10
345.7802734375
 20
5.6748046875
 30
0.0
 10
349.4638671875
 20
3.548828125
 30
0.0
 10
349.4638671875
 20
3.548828125
 30
0.0
 10
349.4638671875
 20
3.548828125
 30
0.0
 10
353.146484375
 20
1.4228515625
 30
0.0
 10
353.146484375
 20
1.4228515625
 30
0.0
 10
353.798828125
 20
1.0458984375
 30
0.0
 10
354.4921875
 20
0.76171875
 30
0.0
 10
355.20703125
 20
0.5703125
 30
0.0
 10
355.921875
 20
0.3798828125
 30
0.0
 10
356.6591796875
 20
0.283203125
 30
0.0
 10
357.3974609375
 20
0.283203125
 30
0.0
 10
357.767578125
 20
0.283203125
 30
0.0
 10
358.13671875
 20
0.3076171875
 30
0.0
 10
358.5048828125
 20
0.35546875
 30
0.0
 10
358.873046875
 20
0.4033203125
 30
0.0
 10
359.2392578125
 20
0.4765625
 30
0.0
 10
359.6005859375
 20
0.5732421875
 30
0.0
 10
360.6904296875
 20
0.865234375
 30
0.0
 10
361.7001953125
 20
1.3681640625
 30
0.0
 10
362.5771484375
 20
2.04296875
 30
0.0
 10
363.455078125
 20
2.716796875
 30
0.0
 10
364.201171875
 20
3.5615234375
 30
0.0
 10
364.7646484375
 20
4.5380859375
 30
0.0
 10
364.7646484375
 20
4.5380859375
 30
0.0
 10
399.4482421875
 20
64.6728515625
 30
0.0
 10
399.4482421875
 20
64.6728515625
 30
0.0
 10
399.4482421875
 20
64.6728515625
 30
0.0
 10
434.1318359375
 20
124.806640625
 30
0.0
 10
434.1318359375
 20
124.806640625
 30
0.0
 10
435.3046875
 20
126.8408203125
 30
0.0
 10
435.54296875
 20
129.15625
 30
0.0
 10
434.978515625
 20
131.2587890625
 30
0.0
  0
SPLINE
  5
41
330
3C
100
AcDbEntity
  8
Layer 1
 62
   205
420
  8412583
370
    20
100
AcDbSpline
210
0.0
220
0.0
230
1.0
 70
    11
 71
     3
 72
    77
 73
    73
 74
     0
 42
0.0000000001
 43
0.0000000001
 40
0.0
 40
0.0
 40
0.0
 40
0.0
 40
1.0
 40
1.0
 40
1.0
 40
2.0
 40
2.0
 40
2.0
 40
3.0
 40
3.0
 40
3.0
 40
4.0
 40
4.0
 40
4.0
 40
5.0
 40
5.0
 40
5.0
 40
6.0
 40
6.0
 40
6.0
 40
7.0
 40
7.0
 40
7.0
 40
8.0
 40
8.0
 40
8.0
 40
9.0
 40
9.0
 40
9.0
 40
10.0
 40
10.0
 40
10.0
 40
11.0
 40
11.0
 40
11.0
 40
12.0
 40
12.0
 40
12.0
 40
13.0
 40
13.0
 40
13.0
 40
14.0
 40
14.0
 40
14.0
 40
15.0
 40
15.0
 40
15.0
 40
16.0
 40
16.0
 40
16.0
 40
17.0
 40
17.0
 40
17.0
 40
18.0
 40
18.0
 40
18.0
 40
19.0
 40
19.0
 40
19.0
 40
20.0
 40
20.0
 40
20.0
 40
21.0
 40
21.0
 40
21.0
 40
22.0
 40
22.0
 40
22.0
 40
23.0
 40
23.0
 40
23.0
 40
24.0
 40
24.0
 40
24.0
 40
24.0
 10
358.298828125
 20
201.29541015625
 30
0.0
 10
358.298828125
 20
201.29541015625
 30
0.0
 10
358.298828125
 20
271.3271484375
 30
0.0
 10
358.298828125
 20
271.3271484375
 30
0.0
 10
358.298828125
 20
271.3271484375
 30
0.0
 10
358.298828125
 20
341.359375
 30
0.0
 10
358.298828125
 20
341.359375
 30
0.0
 10
358.298828125
 20
342.9189453125
 30
0.0
 10
357.8720703125
 20
344.4169921875
 30
0.0
 10
357.1015625
 20
345.7099609375
 30
0.0
 10
356.33203125
 20
347.0029296875
 30
0.0
 10
355.2177734375
 20
348.09228515625
 30
0.0
 10
353.8466796875
 20
348.8359375
 30
0.0
 10
353.8466796875
 20
348.8359375
 30
0.0
 10
351.62109375
 20
350.0419921875
 30
0.0
 10
351.62109375
 20
350.0419921875
 30
0.0
 10
351.62109375
 20
350.0419921875
 30
0.0
 10
349.39453125
 20
351.248046875
 30
0.0
 10
349.39453125
 20
351.248046875
 30
0.0
 10
339.0
 20
356.88134765625
 30
0.0
 10
327.9306640625
 20
361.6484375
 30
0.0
 10
316.1240234375
 20
365.5654296875
 30
0.0
 10
307.28125
 20
368.4970703125
 30
0.0
 10
298.025390625
 20
370.9521484375
 30
0.0
 10
288.328125
 20
372.93701171875
 30
0.0
 10
288.328125
 20
372.93701171875
 30
0.0
 10
283.4404296875
 20
373.84326171875
 30
0.0
 10
283.4404296875
 20
373.84326171875
 30
0.0
 10
280.8330078125
 20
374.326171875
 30
0.0
 10
278.42578125
 20
372.32421875
 30
0.0
 10
278.42578125
 20
369.67138671875
 30
0.0
 10
278.42578125
 20
369.67138671875
 30
0.0
 10
278.42578125
 20
366.1201171875
 30
0.0
 10
278.42578125
 20
366.1201171875
 30
0.0
 10
278.42578125
 20
366.1201171875
 30
0.0
 10
278.42578125
 20
360.9912109375
 30
0.0
 10
278.42578125
 20
360.9912109375
 30
0.0
 10
278.42578125
 20
358.9482421875
 30
0.0
 10
279.8857421875
 20
357.2099609375
 30
0.0
 10
281.892578125
 20
356.82421875
 30
0.0
 10
291.533203125
 20
354.96728515625
 30
0.0
 10
300.83203125
 20
352.6103515625
 30
0.0
 10
309.755859375
 20
349.7109375
 30
0.0
 10
319.74609375
 20
346.46728515625
 30
0.0
 10
329.2666015625
 20
342.54541015625
 30
0.0
 10
338.2744140625
 20
337.89111328125
 30
0.0
 10
339.2080078125
 20
337.41015625
 30
0.0
 10
339.9619140625
 20
336.68212890625
 30
0.0
 10
340.482421875
 20
335.81298828125
 30
0.0
 10
341.00390625
 20
334.943359375
 30
0.0
 10
341.291015625
 20
333.93212890625
 30
0.0
 10
341.291015625
 20
332.88232421875
 30
0.0
 10
341.291015625
 20
332.88232421875
 30
0.0
 10
341.291015625
 20
267.08935546875
 30
0.0
 10
341.291015625
 20
267.08935546875
 30
0.0
 10
341.291015625
 20
267.08935546875
 30
0.0
 10
341.291015625
 20
201.29541015625
 30
0.0
 10
341.291015625
 20
201.29541015625
 30
0.0
 10
341.291015625
 20
196.50537109375
 30
0.0
 10
342.01171875
 20
192.0
 30
0.0
 10
343.41015625
 20
187.697265625
 30
0.0
 10
344.5458984375
 20
184.2041015625
 30
0.0
 10
349.28515625
 20
183.7060546875
 30
0.0
 10
351.123046875
 20
186.8857421875
 30
0.0
 10
351.123046875
 20
186.8857421875
 30
0.0
 10
357.74609375
 20
198.3583984375
 30
0.0
 10
357.74609375
 20
198.3583984375
 30
0.0
 10
358.1337890625
 20
199.029296875
 30
0.0
 10
358.3359375
 20
199.7939453125
 30
0.0
 10
358.310546875
 20
200.568359375
 30
0.0
 10
358.302734375
 20
200.81005859375
 30
0.0
 10
358.298828125
 20
201.05224609375
 30
0.0
 10
358.298828125
 20
201.29541015625
 30
0.0
  0
SPLINE
  5
42
330
3C
100
AcDbEntity
  8
Layer 1
 62
   144
420
   352404
370
    20
100
AcDbSpline
210
0.0
220
0.0
230
1.0
 70
    11
 71
     3
 72
    17
 73
    13
 74
     0
 42
0.0000000001
 43
0.0000000001
 40
0.0
 40
0.0
 40
0.0
 40
0.0
 40
1.0
 40
1.0
 40
1.0
 40
2.0
 40
2.0
 40
2.0
 40
3.0
 40
3.0
 40
3.0
 40
4.0
 40
4.0
 40
4.0
 40
4.0
 10
16.11962890625
 20
107.4990234375
 30
0.0
 10
16.11962890625
 20
104.869140625
 30
0.0
 10
13.9873046875
 20
102.7373046875
 30
0.0
 10
11.357421875
 20
102.7373046875
 30
0.0
 10
8.7275390625
 20
102.7373046875
 30
0.0
 10
6.59521484375
 20
104.869140625
 30
0.0
 10
6.59521484375
 20
107.4990234375
 30
0.0
 10
6.59521484375
 20
110.12890625
 30
0.0
 10
8.7275390625
 20
112.26171875
 30
0.0
 10
11.357421875
 20
112.26171875
 30
0.0
 10
13.9873046875
 20
112.26171875
 30
0.0
 10
16.11962890625
 20
110.12890625
 30
0.0
 10
16.11962890625
 20
107.4990234375
 30
0.0
  0
SPLINE
  5
43
330
3C
100
AcDbEntity
  8
Layer 1
 62
   144
420
   352404
370
    20
100
AcDbSpline
210
0.0
220
0.0
230
1.0
 70
    11
 71
     3
 72
    17
 73
    13
 74
     0
 42
0.0000000001
 43
0.0000000001
 40
0.0
 40
0.0
 40
0.0
 40
0.0
 40
1.0
 40
1.0
 40
1.0
 40
2.0
 40
2.0
 40
2.0
 40
3.0
 40
3.0
 40
3.0
 40
4.0
 40
4.0
 40
4.0
 40
4.0
 10
202.55712890625
 20
54.01953125
 30
0.0
 10
202.55712890625
 20
51.3896484375
 30
0.0
 10
200.4248046875
 20
49.2578125
 30
0.0
 10
197.794921875
 20
49.2578125
 30
0.0
 10
195.1650390625
 20
49.2578125
 30
0.0
 10
193.03271484375
 20
51.3896484375
 30
0.0
 10
193.03271484375
 20
54.01953125
 30
0.0
 10
193.03271484375
 20
56.6494140625
 30
0.0
 10
195.1650390625
 20
58.78125
 30
0.0
 10
197.794921875
 20
58.78125
 30
0.0
 10
200.4248046875
 20
58.78125
 30
0.0
 10
202.55712890625
 20
56.6494140625
 30
0.0
 10
202.55712890625
 20
54.01953125
 30
0.0
  0
SPLINE
  5
44
330
3C
100
AcDbEntity
  8
Layer 1
 62
   144
420
   352404
370
    20
100
AcDbSpline
210
0.0
220
0.0
230
1.0
 70
    11
 71
     3
 72
    17
 73
    13
 74
     0
 42
0.0000000001
 43
0.0000000001
 40
0.0
 40
0.0
 40
0.0
 40
0.0
 40
1.0
 40
1.0
 40
1.0
 40
2.0
 40
2.0
 40
2.0
 40
3.0
 40
3.0
 40
3.0
 40
4.0
 40
4.0
 40
4.0
 40
4.0
 10
361.369140625
 20
12.1865234375
 30
0.0
 10
361.369140625
 20
9.556640625
 30
0.0
 10
359.2373046875
 20
7.4248046875
 30
0.0
 10
356.607421875
 20
7.4248046875
 30
0.0
 10
353.9775390625
 20
7.4248046875
 30
0.0
 10
351.845703125
 20
9.556640625
 30
0.0
 10
351.845703125
 20
12.1865234375
 30
0.0
 10
351.845703125
 20
14.81640625
 30
0.0
 10
353.9775390625
 20
16.94921875
 30
0.0
 10
356.607421875
 20
16.94921875
 30
0.0
 10
359.2373046875
 20
16.94921875
 30
0.0
 10
361.369140625
 20
14.81640625
 30
0.0
 10
361.369140625
 20
12.1865234375
 30
0.0
  0
SPLINE
  5
45
330
3C
100
AcDbEntity
  8
Layer 1
 62
   144
420
   352404
370
    20
100
AcDbSpline
210
0.0
220
0.0
230
1.0
 70
    11
 71
     3
 72
    17
 73
    13
 74
     0
 42
0.0000000001
 43
0.0000000001
 40
0.0
 40
0.0
 40
0.0
 40
0.0
 40
1.0
 40
1.0
 40
1.0
 40
2.0
 40
2.0
 40
2.0
 40
3.0
 40
3.0
 40
3.0
 40
4.0
 40
4.0
 40
4.0
 40
4.0
 10
428.0986328125
 20
128.103515625
 30
0.0
 10
428.0986328125
 20
125.4736328125
 30
0.0
 10
425.966796875
 20
123.341796875
 30
0.0
 10
423.3369140625
 20
123.341796875
 30
0.0
 10
420.70703125
 20
123.341796875
 30
0.0
 10
418.57421875
 20
125.4736328125
 30
0.0
 10
418.57421875
 20
128.103515625
 30
0.0
 10
418.57421875
 20
130.7333984375
 30
0.0
 10
420.70703125
 20
132.865234375
 30
0.0
 10
423.3369140625
 20
132.865234375
 30
0.0
 10
425.966796875
 20
132.865234375
 30
0.0
 10
428.0986328125
 20
130.7333984375
 30
0.0
 10
428.0986328125
 20
128.103515625
 30
0.0
  0
SPLINE
  5
46
330
3C
100
AcDbEntity
  8
Layer 1
 62
   144
420
   352404
370
    20
100
AcDbSpline
210
0.0
220
0.0
230
1.0
 70
    11
 71
     3
 72
    17
 73
    13
 74
     0
 42
0.0000000001
 43
0.0000000001
 40
0.0
 40
0.0
 40
0.0
 40
0.0
 40
1.0
 40
1.0
 40
1.0
 40
2.0
 40
2.0
 40
2.0
 40
3.0
 40
3.0
 40
3.0
 40
4.0
 40
4.0
 40
4.0
 40
4.0
 10
353.306640625
 20
340.6552734375
 30
0.0
 10
353.306640625
 20
338.025390625
 30
0.0
 10
351.1748046875
 20
335.8935546875
 30
0.0
 10
348.544921875
 20
335.8935546875
 30
0.0
 10
345.9150390625
 20
335.8935546875
 30
0.0
 10
343.783203125
 20
338.025390625
 30
0.0
 10
343.783203125
 20
340.6552734375
 30
0.0
 10
343.783203125
 20
343.28564453125
 30
0.0
 10
345.9150390625
 20
345.41748046875
 30
0.0
 10
348.544921875
 20
345.41748046875
 30
0.0
 10
351.1748046875
 20
345.41748046875
 30
0.0
 10
353.306640625
 20
343.28564453125
 30
0.0
 10
353.306640625
 20
340.6552734375
 30
0.0
  0
SPLINE
  5
47
330
3C
100
AcDbEntity
  8
Layer 1
 62
   144
420
   352404
370
    20
100
AcDbSpline
210
0.0
220
0.0
230
1.0
 70
    11
 71
     3
 72
    17
 73
    13
 74
     0
 42
0.0000000001
 43
0.0000000001
 40
0.0
 40
0.0
 40
0.0
 40
0.0
 40
1.0
 40
1.0
 40
1.0
 40
2.0
 40
2.0
 40
2.0
 40
3.0
 40
3.0
 40
3.0
 40
4.0
 40
4.0
 40
4.0
 40
4.0
 10
295.033203125
 20
363.859375
 30
0.0
 10
295.033203125
 20
361.2294921875
 30
0.0
 10
292.9013671875
 20
359.09716796875
 30
0.0
 10
290.271484375
 20
359.09716796875
 30
0.0
 10
287.6416015625
 20
359.09716796875
 30
0.0
 10
285.509765625
 20
361.2294921875
 30
0.0
 10
285.509765625
 20
363.859375
 30
0.0
 10
285.509765625
 20
366.4892578125
 30
0.0
 10
287.6416015625
 20
368.62109375
 30
0.0
 10
290.271484375
 20
368.62109375
 30
0.0
 10
292.9013671875
 20
368.62109375
 30
0.0
 10
295.033203125
 20
366.4892578125
 30
0.0
 10
295.033203125
 20
363.859375
 30
0.0
  0
SPLINE
  5
48
330
3C
100
AcDbEntity
  8
Layer 1
 62
   144
420
   352404
370
    20
100
AcDbSpline
210
0.0
220
0.0
230
1.0
 70
    11
 71
     3
 72
    17
 73
    13
 74
     0
 42
0.0000000001
 43
0.0000000001
 40
0.0
 40
0.0
 40
0.0
 40
0.0
 40
1.0
 40
1.0
 40
1.0
 40
2.0
 40
2.0
 40
2.0
 40
3.0
 40
3.0
 40
3.0
 40
4.0
 40
4.0
 40
4.0
 40
4.0
 10
153.64013671875
 20
365.64501953125
 30
0.0
 10
153.64013671875
 20
363.01513671875
 30
0.0
 10
151.50830078125
 20
360.88330078125
 30
0.0
 10
148.87841796875
 20
360.88330078125
 30
0.0
 10
146.248046875
 20
360.88330078125
 30
0.0
 10
144.1162109375
 20
363.01513671875
 30
0.0
 10
144.1162109375
 20
365.64501953125
 30
0.0
 10
144.1162109375
 20
368.27490234375
 30
0.0
 10
146.248046875
 20
370.4072265625
 30
0.0
 10
148.87841796875
 20
370.4072265625
 30
0.0
 10
151.50830078125
 20
370.4072265625
 30
0.0
 10
153.64013671875
 20
368.27490234375
 30
0.0
 10
153.64013671875
 20
365.64501953125
 30
0.0
  0
SPLINE
  5
49
330
3C
100
AcDbEntity
  8
Layer 1
 62
   144
420
   352404
370
    20
100
AcDbSpline
210
0.0
220
0.0
230
1.0
 70
    11
 71
     3
 72
    17
 73
    13
 74
     0
 42
0.0000000001
 43
0.0000000001
 40
0.0
 40
0.0
 40
0.0
 40
0.0
 40
1.0
 40
1.0
 40
1.0
 40
2.0
 40
2.0
 40
2.0
 40
3.0
 40
3.0
 40
3.0
 40
4.0
 40
4.0
 40
4.0
 40
4.0
 10
15.55712890625
 20
335.06201171875
 30
0.0
 10
15.55712890625
 20
332.431640625
 30
0.0
 10
13.4248046875
 20
330.2998046875
 30
0.0
 10
10.794921875
 20
330.2998046875
 30
0.0
 10
8.1650390625
 20
330.2998046875
 30
0.0
 10
6.03271484375
 20
332.431640625
 30
0.0
 10
6.03271484375
 20
335.06201171875
 30
0.0
 10
6.03271484375
 20
337.69189453125
 30
0.0
 10
8.1650390625
 20
339.82373046875
 30
0.0
 10
10.794921875
 20
339.82373046875
 30
0.0
 10
13.4248046875
 20
339.82373046875
 30
0.0
 10
15.55712890625
 20
337.69189453125
 30
0.0
 10
15.55712890625
 20
335.06201171875
 30
0.0
  0
SPLINE
  5
4A
330
3C
100
AcDbEntity
  8
Layer 1
 62
   144
420
   352404
370
    20
100
AcDbSpline
210
0.0
220
0.0
230
1.0
 70
    11
 71
     3
 72
    17
 73
    13
 74
     0
 42
0.0000000001
 43
0.0000000001
 40
0.0
 40
0.0
 40
0.0
 40
0.0
 40
1.0
 40
1.0
 40
1.0
 40
2.0
 40
2.0
 40
2.0
 40
3.0
 40
3.0
 40
3.0
 40
4.0
 40
4.0
 40
4.0
 40
4.0
 10
389.0830078125
 20
154.8955078125
 30
0.0
 10
389.0830078125
 20
152.265625
 30
0.0
 10
386.951171875
 20
150.1337890625
 30
0.0
 10
384.3203125
 20
150.1337890625
 30
0.0
 10
381.6904296875
 20
150.1337890625
 30
0.0
 10
379.55859375
 20
152.265625
 30
0.0
 10
379.55859375
 20
154.8955078125
 30
0.0
 10
379.55859375
 20
157.525390625
 30
0.0
 10
381.6904296875
 20
159.658203125
 30
0.0
 10
384.3203125
 20
159.658203125
 30
0.0
 10
386.951171875
 20
159.658203125
 30
0.0
 10
389.0830078125
 20
157.525390625
 30
0.0
 10
389.0830078125
 20
154.8955078125
 30
0.0
  0
SPLINE
  5
4B
330
3C
100
AcDbEntity
  8
Layer 1
 62
   144
420
   352404
370
    20
100
AcDbSpline
210
0.0
220
0.0
230
1.0
 70
    11
 71
     3
 72
    17
 73
    13
 74
     0
 42
0.0000000001
 43
0.0000000001
 40
0.0
 40
0.0
 40
0.0
 40
0.0
 40
1.0
 40
1.0
 40
1.0
 40
2.0
 40
2.0
 40
2.0
 40
3.0
 40
3.0
 40
3.0
 40
4.0
 40
4.0
 40
4.0
 40
4.0
 10
354.556640625
 20
204.64501953125
 30
0.0
 10
354.556640625
 20
202.01513671875
 30
0.0
 10
352.4248046875
 20
199.88330078125
 30
0.0
 10
349.794921875
 20
199.88330078125
 30
0.0
 10
347.1650390625
 20
199.88330078125
 30
0.0
 10
345.033203125
 20
202.01513671875
 30
0.0
 10
345.033203125
 20
204.64501953125
 30
0.0
 10
345.033203125
 20
207.27490234375
 30
0.0
 10
347.1650390625
 20
209.4072265625
 30
0.0
 10
349.794921875
 20
209.4072265625
 30
0.0
 10
352.4248046875
 20
209.4072265625
 30
0.0
 10
354.556640625
 20
207.27490234375
 30
0.0
 10
354.556640625
 20
204.64501953125
 30
0.0
  0
POLYLINE
  5
4C
330
3C
100
AcDbEntity
  8
Layer 1
370
     0
100
AcDb2dPolyline
 66
     1
 10
0.0
 20
0.0
 30
0.0
  0
VERTEX
  5
4D
330
4C
100
AcDbEntity
  8
Layer 1
370
     0
100
AcDbVertex
100
AcDb2dVertex
 10
0.0
 20
379.2607421875
 30
0.0
  0
VERTEX
  5
4E
330
4C
100
AcDbEntity
  8
Layer 1
370
     0
100
AcDbVertex
100
AcDb2dVertex
 10
435.5537109375
 20
379.2607421875
 30
0.0
  0
VERTEX
  5
4F
330
4C
100
AcDbEntity
  8
Layer 1
370
     0
100
AcDbVertex
100
AcDb2dVertex
 10
435.5537109375
 20
0.0
 30
0.0
  0
VERTEX
  5
50
330
4C
100
AcDbEntity
  8
Layer 1
370
     0
100
AcDbVertex
100
AcDb2dVertex
 10
0.0
 20
0.0
 30
0.0
  0
VERTEX
  5
51
330
4C
100
AcDbEntity
  8
Layer 1
370
     0
100
AcDbVertex
100
AcDb2dVertex
 10
0.0
 20
379.2607421875
 30
0.0
  0
SEQEND
  5
52
330
4C
100
AcDbEntity
  8
Layer 1
370
     0
  0
ENDBLK
  5
3F
330
3C
100
AcDbEntity
  8
0
100
AcDbBlockEnd
  0
ENDSEC
  0
SECTION
  2
ENTITIES
  0
INSERT
  5
3D
330
1F
100
AcDbEntity
  8
Layer 1
100
AcDbBlockReference
  2
block 2
 10
0.0
 20
0.0
 30
0.0
  0
ENDSEC
  0
SECTION
  2
OBJECTS
  0
DICTIONARY
  5
C
330
0
100
AcDbDictionary
281
     1
  3
ACAD_GROUP
350
D
  3
ACAD_LAYOUT
350
1A
  3
ACAD_MLINESTYLE
350
17
  3
ACAD_PLOTSETTINGS
350
19
  3
ACAD_PLOTSTYLENAME
350
E
  3
ACAD_TABLESTYLE
350
53
  3
ACAD_VISUALSTYLE
350
2A
  0
DICTIONARY
  5
D
102
{ACAD_REACTORS
330
C
102
}
330
C
100
AcDbDictionary
281
     1
  0
DICTIONARY
  5
1A
102
{ACAD_REACTORS
330
C
102
}
330
C
100
AcDbDictionary
281
     1
  3
Layout1
350
1E
  3
Layout2
350
26
  3
Model
350
22
  0
DICTIONARY
  5
17
102
{ACAD_REACTORS
330
C
102
}
330
C
100
AcDbDictionary
281
     1
  3
Standard
350
18
  0
DICTIONARY
  5
19
102
{ACAD_REACTORS
330
C
102
}
330
C
100
AcDbDictionary
281
     1
  0
ACDBDICTIONARYWDFLT
  5
E
102
{ACAD_REACTORS
330
C
102
}
330
C
100
AcDbDictionary
281
     1
  3
Normal
350
F
100
AcDbDictionaryWithDefault
340
F
  0
DICTIONARY
  5
53
102
{ACAD_REACTORS
330
C
102
}
330
C
100
AcDbDictionary
281
     1
  0
DICTIONARY
  5
2A
102
{ACAD_REACTORS
330
C
102
}
330
C
100
AcDbDictionary
281
     1
  3
2dWireframe
350
2F
  3
3D Hidden
350
31
  3
3dWireframe
350
30
  3
Basic
350
32
  3
Brighten
350
36
  3
ColorChange
350
3A
  3
Conceptual
350
34
  3
Dim
350
35
  3
Facepattern
350
39
  3
Flat
350
2B
  3
FlatWithEdges
350
2C
  3
Gouraud
350
2D
  3
GouraudWithEdges
350
2E
  3
Linepattern
350
38
  3
Realistic
350
33
  3
Thicken
350
37
  0
LAYOUT
  5
1E
102
{ACAD_REACTORS
330
1A
102
}
330
1A
100
AcDbPlotSettings
  1

  2
none_device
  4

  6

 40
0.0
 41
0.0
 42
0.0
 43
0.0
 44
0.0
 45
0.0
 46
0.0
 47
0.0
 48
0.0
 49
0.0
140
0.0
141
0.0
142
1.0
143
1.0
 70
   688
 72
     0
 73
     0
 74
     5
  7

 75
    16
 76
     0
 77
     2
 78
   300
147
1.0
148
0.0
149
0.0
100
AcDbLayout
  1
Layout1
 70
     1
 71
     1
 10
0.0
 20
0.0
 11
12.0
 21
9.0
 12
0.0
 22
0.0
 32
0.0
 14
1.000000000000000E+20
 24
1.000000000000000E+20
 34
1.000000000000000E+20
 15
-1.000000000000000E+20
 25
-1.000000000000000E+20
 35
-1.000000000000000E+20
146
0.0
 13
0.0
 23
0.0
 33
0.0
 16
1.0
 26
0.0
 36
0.0
 17
0.0
 27
1.0
 37
0.0
 76
     0
330
1B
  0
LAYOUT
  5
26
102
{ACAD_REACTORS
330
1A
102
}
330
1A
100
AcDbPlotSettings
  1

  2
none_device
  4

  6

 40
0.0
 41
0.0
 42
0.0
 43
0.0
 44
0.0
 45
0.0
 46
0.0
 47
0.0
 48
0.0
 49
0.0
140
0.0
141
0.0
142
1.0
143
1.0
 70
   688
 72
     0
 73
     0
 74
     5
  7

 75
    16
 76
     0
 77
     2
 78
   300
147
1.0
148
0.0
149
0.0
100
AcDbLayout
  1
Layout2
 70
     1
 71
     2
 10
0.0
 20
0.0
 11
0.0
 21
0.0
 12
0.0
 22
0.0
 32
0.0
 14
0.0
 24
0.0
 34
0.0
 15
0.0
 25
0.0
 35
0.0
146
0.0
 13
0.0
 23
0.0
 33
0.0
 16
1.0
 26
0.0
 36
0.0
 17
0.0
 27
1.0
 37
0.0
 76
     0
330
23
  0
LAYOUT
  5
22
102
{ACAD_REACTORS
330
1A
102
}
330
1A
100
AcDbPlotSettings
  1

  2
none_device
  4

  6

 40
0.0
 41
0.0
 42
0.0
 43
0.0
 44
0.0
 45
0.0
 46
0.0
 47
0.0
 48
0.0
 49
0.0
140
0.0
141
0.0
142
1.0
143
1.0
 70
  1712
 72
     0
 73
     0
 74
     0
  7

 75
     0
 76
     0
 77
     2
 78
   300
147
1.0
148
0.0
149
0.0
100
AcDbLayout
  1
Model
 70
     1
 71
     0
 10
0.0
 20
0.0
 11
12.0
 21
9.0
 12
0.0
 22
0.0
 32
0.0
 14
1.000000000000000E+20
 24
1.000000000000000E+20
 34
1.000000000000000E+20
 15
-1.000000000000000E+20
 25
-1.000000000000000E+20
 35
-1.000000000000000E+20
146
0.0
 13
0.0
 23
0.0
 33
0.0
 16
1.0
 26
0.0
 36
0.0
 17
0.0
 27
1.0
 37
0.0
 76
     0
330
1F
331
29
  0
MLINESTYLE
  5
18
102
{ACAD_REACTORS
330
17
102
}
330
17
100
AcDbMlineStyle
  2
Standard
 70
     0
  3

 62
   256
 51
90.0
 52
90.0
 71
     2
 49
0.5
 62
   256
  6
BYLAYER
 49
-0.5
 62
   256
  6
BYLAYER
  0
ACDBPLACEHOLDER
  5
F
102
{ACAD_REACTORS
330
E
102
}
330
E
  0
VISUALSTYLE
  5
2F
102
{ACAD_REACTORS
330
2A
102
}
330
2A
100
AcDbVisualStyle
  2
2dWireframe
 70
     4
 71
     0
 72
     2
 73
     0
 90
        0
 40
-0.6
 41
-30.0
 62
     5
 63
     7
421
 16777215
 74
     1
 91
        4
 64
     7
 65
   257
 75
     1
175
     1
 42
1.0
 92
        0
 66
   257
 43
1.0
 76
     1
 77
     6
 78
     2
 67
     7
 79
     5
170
     0
171
     0
290
     0
174
     0
 93
        1
 44
0.0
173
     0
291
     0
 45
0.0
1001
ACAD
1000
AcDbSavedByObjectVersion
1070
     0
  0
VISUALSTYLE
  5
31
102
{ACAD_REACTORS
330
2A
102
}
330
2A
100
AcDbVisualStyle
  2
3D Hidden
 70
     6
 71
     1
 72
     2
 73
     2
 90
        0
 40
-0.6
 41
-30.0
 62
     5
 63
     7
421
 16777215
 74
     2
 91
        2
 64
     7
 65
   257
 75
     2
175
     1
 42
40.0
 92
        0
 66
   257
 43
1.0
 76
     1
 77
     6
 78
     2
 67
     7
 79
     3
170
     0
171
     0
290
     0
174
     0
 93
        1
 44
0.0
173
     0
291
     0
 45
0.0
1001
ACAD
1000
AcDbSavedByObjectVersion
1070
     0
  0
VISUALSTYLE
  5
30
102
{ACAD_REACTORS
330
2A
102
}
330
2A
100
AcDbVisualStyle
  2
3dWireframe
 70
     5
 71
     0
 72
     2
 73
     0
 90
        0
 40
-0.6
 41
-30.0
 62
     5
 63
     7
421
 16777215
 74
     1
 91
        4
 64
     7
 65
   257
 75
     1
175
     1
 42
1.0
 92
        0
 66
   257
 43
1.0
 76
     1
 77
     6
 78
     2
 67
     7
 79
     5
170
     0
171
     0
290
     0
174
     0
 93
        1
 44
0.0
173
     0
291
     0
 45
0.0
1001
ACAD
1000
AcDbSavedByObjectVersion
1070
     0
  0
VISUALSTYLE
  5
32
102
{ACAD_REACTORS
330
2A
102
}
330
2A
100
AcDbVisualStyle
  2
Basic
 70
     7
 71
     1
 72
     0
 73
     1
 90
        0
 40
-0.6
 41
-30.0
 62
     5
 63
     7
421
 16777215
 74
     0
 91
        4
 64
     7
 65
   257
 75
     1
175
     1
 42
1.0
 92
        8
 66
     7
 43
1.0
 76
     1
 77
     6
 78
     2
 67
     7
 79
     5
170
     0
171
     0
290
     0
174
     0
 93
        1
 44
0.0
173
     0
291
     1
 45
0.0
1001
ACAD
1000
AcDbSavedByObjectVersion
1070
     0
  0
VISUALSTYLE
  5
36
102
{ACAD_REACTORS
330
2A
102
}
330
2A
100
AcDbVisualStyle
  2
Brighten
 70
    12
 71
     2
 72
     2
 73
     0
 90
        0
 40
-0.6
 41
-30.0
 62
     5
 63
     7
421
 16777215
 74
     1
 91
        4
 64
     7
 65
   257
 75
     1
175
     1
 42
1.0
 92
        8
 66
     7
 43
1.0
 76
     1
 77
     6
 78
     2
 67
     7
 79
     5
170
     0
171
     0
290
     0
174
     0
 93
        1
 44
50.0
173
     0
291
     1
 45
0.0
1001
ACAD
1000
AcDbSavedByObjectVersion
1070
     0
  0
VISUALSTYLE
  5
3A
102
{ACAD_REACTORS
330
2A
102
}
330
2A
100
AcDbVisualStyle
  2
ColorChange
 70
    16
 71
     2
 72
     2
 73
     3
 90
        0
 40
-0.6
 41
-30.0
 62
     5
 63
     8
421
  8421504
 74
     1
 91
        4
 64
     7
 65
   257
 75
     1
175
     1
 42
1.0
 92
        8
 66
     8
424
  8421504
 43
1.0
 76
     1
 77
     6
 78
     2
 67
     7
 79
     5
170
     0
171
     0
290
     0
174
     0
 93
        1
 44
0.0
173
     0
291
     1
 45
0.0
1001
ACAD
1000
AcDbSavedByObjectVersion
1070
     0
  0
VISUALSTYLE
  5
34
102
{ACAD_REACTORS
330
2A
102
}
330
2A
100
AcDbVisualStyle
  2
Conceptual
 70
     9
 71
     3
 72
     2
 73
     0
 90
        0
 40
-0.6
 41
-30.0
 62
     5
 63
     7
421
 16777215
 74
     2
 91
        2
 64
     7
 65
   257
 75
     1
175
     1
 42
40.0
 92
        8
 66
     7
 43
1.0
 76
     1
 77
     6
 78
     2
 67
     7
 79
     3
170
     0
171
     0
290
     0
174
     0
 93
        1
 44
0.0
173
     0
291
     0
 45
0.0
1001
ACAD
1000
AcDbSavedByObjectVersion
1070
     0
  0
VISUALSTYLE
  5
35
102
{ACAD_REACTORS
330
2A
102
}
330
2A
100
AcDbVisualStyle
  2
Dim
 70
    11
 71
     2
 72
     2
 73
     0
 90
        0
 40
-0.6
 41
-30.0
 62
     5
 63
     7
421
 16777215
 74
     1
 91
        4
 64
     7
 65
   257
 75
     1
175
     1
 42
1.0
 92
        8
 66
     7
 43
1.0
 76
     1
 77
     6
 78
     2
 67
     7
 79
     5
170
     0
171
     0
290
     0
174
     0
 93
        1
 44
-50.0
173
     0
291
     1
 45
0.0
1001
ACAD
1000
AcDbSavedByObjectVersion
1070
     0
  0
VISUALSTYLE
  5
39
102
{ACAD_REACTORS
330
2A
102
}
330
2A
100
AcDbVisualStyle
  2
Facepattern
 70
    15
 71
     2
 72
     2
 73
     0
 90
        0
 40
-0.6
 41
-30.0
 62
     5
 63
     7
421
 16777215
 74
     1
 91
        4
 64
     7
 65
   257
 75
     1
175
     1
 42
1.0
 92
        8
 66
     7
 43
1.0
 76
     1
 77
     6
 78
     2
 67
     7
 79
     5
170
     0
171
     0
290
     0
174
     0
 93
        1
 44
0.0
173
     0
291
     1
 45
0.0
1001
ACAD
1000
AcDbSavedByObjectVersion
1070
     0
  0
VISUALSTYLE
  5
2B
102
{ACAD_REACTORS
330
2A
102
}
330
2A
100
AcDbVisualStyle
  2
Flat
 70
     0
 71
     2
 72
     1
 73
     1
 90
        2
 40
-0.6
 41
30.0
 62
     5
 63
     7
421
 16777215
 74
     0
 91
        4
 64
     7
 65
   257
 75
     1
175
     1
 42
1.0
 92
        8
 66
     7
 43
1.0
 76
     1
 77
     6
 78
     2
 67
     7
 79
     5
170
     0
171
     0
290
     0
174
     0
 93
       13
 44
0.0
173
     0
291
     1
 45
0.0
1001
ACAD
1000
AcDbSavedByObjectVersion
1070
     0
  0
VISUALSTYLE
  5
2C
102
{ACAD_REACTORS
330
2A
102
}
330
2A
100
AcDbVisualStyle
  2
FlatWithEdges
 70
     1
 71
     2
 72
     1
 73
     1
 90
        2
 40
-0.6
 41
30.0
 62
     5
 63
     7
421
 16777215
 74
     1
 91
        4
 64
     7
 65
   257
 75
     1
175
     1
 42
1.0
 92
        0
 66
   257
 43
1.0
 76
     1
 77
     6
 78
     2
 67
     7
 79
     5
170
     0
171
     0
290
     0
174
     0
 93
       13
 44
0.0
173
     0
291
     1
 45
0.0
1001
ACAD
1000
AcDbSavedByObjectVersion
1070
     0
  0
VISUALSTYLE
  5
2D
102
{ACAD_REACTORS
330
2A
102
}
330
2A
100
AcDbVisualStyle
  2
Gouraud
 70
     2
 71
     2
 72
     2
 73
     1
 90
        2
 40
-0.6
 41
30.0
 62
     5
 63
     7
421
 16777215
 74
     0
 91
        4
 64
     7
 65
   257
 75
     1
175
     1
 42
1.0
 92
        0
 66
     7
 43
1.0
 76
     1
 77
     6
 78
     2
 67
     7
 79
     5
170
     0
171
     0
290
     0
174
     0
 93
       13
 44
0.0
173
     0
291
     1
 45
0.0
1001
ACAD
1000
AcDbSavedByObjectVersion
1070
     0
  0
VISUALSTYLE
  5
2E
102
{ACAD_REACTORS
330
2A
102
}
330
2A
100
AcDbVisualStyle
  2
GouraudWithEdges
 70
     3
 71
     2
 72
     2
 73
     1
 90
        2
 40
-0.6
 41
30.0
 62
     5
 63
     7
421
 16777215
 74
     1
 91
        4
 64
     7
 65
   257
 75
     1
175
     1
 42
1.0
 92
        0
 66
   257
 43
1.0
 76
     1
 77
     6
 78
     2
 67
     7
 79
     5
170
     0
171
     0
290
     0
174
     0
 93
       13
 44
0.0
173
     0
291
     1
 45
0.0
1001
ACAD
1000
AcDbSavedByObjectVersion
1070
     0
  0
VISUALSTYLE
  5
38
102
{ACAD_REACTORS
330
2A
102
}
330
2A
100
AcDbVisualStyle
  2
Linepattern
 70
    14
 71
     2
 72
     2
 73
     0
 90
        0
 40
-0.6
 41
-30.0
 62
     5
 63
     7
421
 16777215
 74
     1
 91
        4
 64
     7
 65
   257
 75
     7
175
     7
 42
1.0
 92
        8
 66
     7
 43
1.0
 76
     1
 77
     6
 78
     2
 67
     7
 79
     5
170
     0
171
     0
290
     0
174
     0
 93
        1
 44
0.0
173
     0
291
     1
 45
0.0
1001
ACAD
1000
AcDbSavedByObjectVersion
1070
     0
  0
VISUALSTYLE
  5
33
102
{ACAD_REACTORS
330
2A
102
}
330
2A
100
AcDbVisualStyle
  2
Realistic
 70
     8
 71
     2
 72
     2
 73
     0
 90
        0
 40
-0.6
 41
-30.0
 62
     5
 63
     7
421
 16777215
 74
     1
 91
        0
 64
     7
 65
   257
 75
     1
175
     1
 42
1.0
 92
        8
 66
     8
424
  7895160
 43
1.0
 76
     1
 77
     6
 78
     2
 67
     7
 79
     5
170
     0
171
     0
290
     0
174
     0
 93
       13
 44
0.0
173
     0
291
     0
 45
0.0
1001
ACAD
1000
AcDbSavedByObjectVersion
1070
     0
  0
VISUALSTYLE
  5
37
102
{ACAD_REACTORS
330
2A
102
}
330
2A
100
AcDbVisualStyle
  2
Thicken
 70
    13
 71
     2
 72
     2
 73
     0
 90
        0
 40
-0.6
 41
-30.0
 62
     5
 63
     7
421
 16777215
 74
     1
 91
        4
 64
     7
 65
   257
 75
     1
175
     1
 42
1.0
 92
       12
 66
     7
 43
1.0
 76
     1
 77
     6
 78
     2
 67
     7
 79
     5
170
     0
171
     0
290
     0
174
     0
 93
        1
 44
0.0
173
     0
291
     1
 45
0.0
1001
ACAD
1000
AcDbSavedByObjectVersion
1070
     0
  0
ENDSEC
  0
EOF
